<svg id="Layer_1" data-name="Layer 1" xmlns="http://www.w3.org/2000/svg" viewBox="0 0 193 32.18"><defs><style>.cls-1{fill:#023f87;}</style></defs><title>postgroup-logo_blue</title><path class="cls-1" d="M19.21,22.58a7.26,7.26,0,0,1,.94.59A11.39,11.39,0,0,1,22.66,22V20.12H19.21Z" transform="translate(0 -0.41)"/><path class="cls-1" d="M18.56,22.35v-11h.66v3.11a8.51,8.51,0,0,0,2.37-2.25,4.64,4.64,0,0,0,.77-2.6,3.29,3.29,0,0,0-.6-2,5.08,5.08,0,0,0-1.85-1.47,7,7,0,0,0-1.69,1.14,2.56,2.56,0,0,0-.6,1.1,9.56,9.56,0,0,0-.17,2.16v5.61a8.27,8.27,0,0,1-.23,2.26,4,4,0,0,1-.89,1.49A17.1,17.1,0,0,1,13.63,22a12.08,12.08,0,0,1,2-.19,7.47,7.47,0,0,1,2.89.52" transform="translate(0 -0.41)"/><rect class="cls-1" x="19.21" y="16.99" width="3.44" height="2.05"/><path class="cls-1" d="M19.21,15.23v1.51h3.44A3.19,3.19,0,0,0,22.3,15a3.72,3.72,0,0,0-1.36-1.08,20.63,20.63,0,0,1-1.72,1.36" transform="translate(0 -0.41)"/><path class="cls-1" d="M0,32.59H32.18V.41H0ZM11.76,7.36A7.22,7.22,0,0,1,9.9,7a3.34,3.34,0,0,0-.82-.17,1.68,1.68,0,0,0-1,.21,2.57,2.57,0,0,0-.86.9h0a2.59,2.59,0,0,1,.31-1.36,3.47,3.47,0,0,1,1.15-1.3,2.65,2.65,0,0,1,1.55-.51,8.28,8.28,0,0,1,2,.41,7.7,7.7,0,0,0,2.24.32,10.38,10.38,0,0,0,1.43-.1A11,11,0,0,0,18,4.93l0,0-.61.34a10.14,10.14,0,0,0-3.25,2.87,6.9,6.9,0,0,0-.88,3.62v5.62A9.23,9.23,0,0,1,13,20.31a8,8,0,0,1-1.41,2.34,6.56,6.56,0,0,0,2.77-2.2A6.82,6.82,0,0,0,15.06,17v-4a13,13,0,0,1,.42-4A4.25,4.25,0,0,1,17,7a22.63,22.63,0,0,1,4.9-2.18,3.81,3.81,0,0,1,1.82,1.12,3.62,3.62,0,0,1,.87,2.4,4.59,4.59,0,0,1-.68,2.29,12.56,12.56,0,0,1-2.51,2.81,5.76,5.76,0,0,1,2.28.6,2.4,2.4,0,0,1,1,1.12A6.26,6.26,0,0,1,25,17.43v4.71A12.12,12.12,0,0,0,18,25.54,7,7,0,0,0,16,24.37a8.52,8.52,0,0,0-3.14-.57,5.1,5.1,0,0,0-3.29.93A2.13,2.13,0,0,0,8.74,26a1.67,1.67,0,0,0,.12,1.1c.39.43.53.18.8.37a.47.47,0,0,1,0,.73,1,1,0,0,1-.93.12,1.15,1.15,0,0,1-.61-.46A1.39,1.39,0,0,1,7.84,27a2.89,2.89,0,0,1,.32-1.21,10.6,10.6,0,0,1,1.39-1.95A12.14,12.14,0,0,0,10.9,22a2.48,2.48,0,0,0,.3-1.1,1.44,1.44,0,0,0-.35-1,1.06,1.06,0,0,0-.83-.41,1.68,1.68,0,0,0-.9.23,2.09,2.09,0,0,0-.86,1.17l0-.15a1.48,1.48,0,0,1,0-.26A2.81,2.81,0,0,1,9,18.57a2.22,2.22,0,0,1,1.75-.74h.39a4.41,4.41,0,0,0-.34-1.94,1.66,1.66,0,0,0-1.56-1,2.71,2.71,0,0,0-1.39.38,3.94,3.94,0,0,0-.73.77V16A3.34,3.34,0,0,1,8,13.9a2.54,2.54,0,0,1,1.92-.78,8.5,8.5,0,0,1,1.07.08,11.94,11.94,0,0,1,.3-2.82,4.43,4.43,0,0,1,.86-1.61,13.49,13.49,0,0,1,2.16-1.92,6.67,6.67,0,0,1-2.57.5" transform="translate(0 -0.41)"/><path class="cls-1" d="M46.32,12.74a3,3,0,0,0,1-2.47,3,3,0,0,0-.6-1.91,2.5,2.5,0,0,0-1.11-.81A1.8,1.8,0,0,0,46,7.38a1.76,1.76,0,0,0,.58-.54,2.27,2.27,0,0,0,.3-.67A2.68,2.68,0,0,0,47,5.49a2.91,2.91,0,0,0-.91-2.32,4.7,4.7,0,0,0-3-.77h-7V3h.14c.3,0,.38.06.4.08s.08.13.08.46v8.86c0,.33-.06.44-.08.47s-.09.08-.4.08h-.14v.57h7a5.37,5.37,0,0,0,3.25-.77M38.61,4H43a2.59,2.59,0,0,1,1.65.38,1.35,1.35,0,0,1,.43,1.08A2.65,2.65,0,0,1,45,6a.76.76,0,0,1-.27.42,1.54,1.54,0,0,1-.62.27,5.19,5.19,0,0,1-1.11.1H38.61Zm0,4.53h4.58a2.6,2.6,0,0,1,1.68.41,1.64,1.64,0,0,1,.44,1.28,3.51,3.51,0,0,1-.08.8,1,1,0,0,1-.28.5,1.28,1.28,0,0,1-.6.29,5.06,5.06,0,0,1-1.09.1H38.61Z" transform="translate(0 -0.41)"/><path class="cls-1" d="M52.59,12.93h-.14a1.15,1.15,0,0,1-.45-.06c-.06,0-.07-.07-.07-.1a.59.59,0,0,1,.09-.25c.08-.13.15-.28.21-.43l.8-1.79h5.81l1,2,.1.24a.65.65,0,0,1,0,.24s0,.07-.07.1a1.42,1.42,0,0,1-.53.06H59.2v.57h3.38v-.57h-.14a.63.63,0,0,1-.44-.11,1.05,1.05,0,0,1-.2-.3l-4.21-9-.12-.26a.38.38,0,0,1,0-.18s0-.07.09-.1A1.07,1.07,0,0,1,57.87,3H58V2.4H53.74v.52h.13a.89.89,0,0,1,.41.1.15.15,0,0,1,.08.11,1.15,1.15,0,0,1-.11.36L50.35,12.4a2.1,2.1,0,0,1-.24.42.55.55,0,0,1-.42.12h-.14v.57h3Zm3.24-9,2.26,4.7H53.72Z" transform="translate(0 -0.41)"/><path class="cls-1" d="M67.53,12.93H67.4c-.29,0-.4-.06-.43-.09s-.09-.13-.09-.46V4.82l6.72,7.67.22.24a.14.14,0,0,1,0,.11s0,0,0,0a1.8,1.8,0,0,1-.53,0h-.14v.57h3.58v-.57H76.6c-.29,0-.4-.06-.43-.09s-.1-.13-.1-.46V3.52c0-.32.07-.43.1-.45s.14-.1.43-.1h.14V2.4h-3V3h.14c.3,0,.4.06.43.1s.1.13.1.45v7.24L68,3.39c-.2-.25-.23-.33-.24-.33l.05,0a1.4,1.4,0,0,1,.47,0h.14V2.4H64.55V3h.14c.29,0,.4.06.43.1s.1.13.1.45v8.86c0,.33-.07.43-.1.46s-.13.09-.43.09h-.14v.57h3Z" transform="translate(0 -0.41)"/><path class="cls-1" d="M82.94,13.24a9.25,9.25,0,0,0,2.55.34A12.91,12.91,0,0,0,87,13.5a8,8,0,0,0,1.55-.34A8,8,0,0,0,90,12.49a6.06,6.06,0,0,0,1.31-1l0,0V11l-.11,0a.25.25,0,0,1-.23-.28V9.08a.39.39,0,0,1,0-.22.42.42,0,0,1,.2-.09l.11,0V8.21H87c-.29,0-.37-.05-.4-.08A.23.23,0,0,1,86.52,8V7.81h-.57v2.64h.57v-.14A.55.55,0,0,1,86.6,10s.11-.09.39-.09h2.1v1.27a2.62,2.62,0,0,1-.65.36,6.47,6.47,0,0,1-.93.28c-.34.07-.66.13-1,.17a6.21,6.21,0,0,1-.83.06,6.43,6.43,0,0,1-2.11-.31,4.34,4.34,0,0,1-1.48-.83,3.44,3.44,0,0,1-.87-1.22A3.75,3.75,0,0,1,81,8.15a4.39,4.39,0,0,1,.32-1.71,4,4,0,0,1,.9-1.34,4,4,0,0,1,1.39-.88,5.07,5.07,0,0,1,1.8-.31,7.1,7.1,0,0,1,1.83.22,6.58,6.58,0,0,1,1.34.51,3.38,3.38,0,0,1,.8.55c.23.23.25.31.25.31a1.14,1.14,0,0,1,0,.24l0,.12.53.22,1-2.42-.51-.22-.06.07-.11.12h-.09a1.47,1.47,0,0,1-.42-.2,10.41,10.41,0,0,0-1-.48,10.57,10.57,0,0,0-1.5-.48,8.08,8.08,0,0,0-1.92-.21,6.94,6.94,0,0,0-2.72.5,6.15,6.15,0,0,0-2,1.31,5.74,5.74,0,0,0-1.24,1.82,5.16,5.16,0,0,0-.43,2,5.86,5.86,0,0,0,.49,2.46,5.17,5.17,0,0,0,1.35,1.81,5.41,5.41,0,0,0,2,1.08" transform="translate(0 -0.41)"/><path class="cls-1" d="M105.48,12.82a2,2,0,0,1-.35-.39l-4.45-6.14,4-3a1.19,1.19,0,0,1,.77-.29h.14V2.4h-4V3h.14c.4,0,.48.08.48.11a.11.11,0,0,1-.06.1l-.23.16L97,7V3.52c0-.33.05-.44.08-.47s.09-.08.4-.08h.14V2.4h-3V3h.14c.3,0,.38.06.4.08a.86.86,0,0,1,.08.47v8.86a.87.87,0,0,1-.08.47s-.1.08-.4.08h-.14v.57h3v-.57h-.14c-.31,0-.38-.06-.4-.08s-.08-.13-.08-.47V9.06l2.3-1.79,3.76,5.13c.25.33.27.45.27.48s0,0,0,0a1.36,1.36,0,0,1-.45,0h-.14v.57h3.41v-.57H106a.81.81,0,0,1-.49-.12" transform="translate(0 -0.41)"/><path class="cls-1" d="M118.26,3.92a6.28,6.28,0,0,0-2-1.22,7.88,7.88,0,0,0-5.25,0,6.33,6.33,0,0,0-2,1.22,5.28,5.28,0,0,0-1.28,1.81,5.78,5.78,0,0,0,0,4.44A5.31,5.31,0,0,0,109,12a5.79,5.79,0,0,0,2,1.19,8.53,8.53,0,0,0,5.24,0,5.78,5.78,0,0,0,2-1.19,5.29,5.29,0,0,0,1.28-1.81A5.58,5.58,0,0,0,120,8a5.57,5.57,0,0,0-.44-2.22,5.27,5.27,0,0,0-1.28-1.81m-.49,5.6a3.8,3.8,0,0,1-.88,1.28,4.3,4.3,0,0,1-1.4.87,5.55,5.55,0,0,1-3.72,0,4.23,4.23,0,0,1-1.39-.87,3.8,3.8,0,0,1-.88-1.28,4.11,4.11,0,0,1-.31-1.6,4.06,4.06,0,0,1,.31-1.57,3.91,3.91,0,0,1,.88-1.28,4,4,0,0,1,1.39-.86,5.75,5.75,0,0,1,3.72,0,4.09,4.09,0,0,1,1.39.86,3.84,3.84,0,0,1,.88,1.28,4.05,4.05,0,0,1,.31,1.57,4.11,4.11,0,0,1-.31,1.6" transform="translate(0 -0.41)"/><path class="cls-1" d="M133.73,12.82a2.08,2.08,0,0,1-.36-.39l-4.45-6.14,4-3A1.18,1.18,0,0,1,133.7,3h.14V2.4h-4V3H130c.39,0,.47.08.47.11a.11.11,0,0,1-.05.1l-.23.16L125.25,7V3.52c0-.33.05-.44.08-.47s.09-.08.4-.08h.14V2.4h-3V3H123c.3,0,.38.06.4.08a.85.85,0,0,1,.08.47v8.86a.86.86,0,0,1-.08.47s-.1.08-.4.08h-.14v.57h3v-.57h-.14c-.3,0-.38-.06-.4-.08s-.08-.13-.08-.47V9.06l2.3-1.79,3.76,5.13c.25.33.27.45.27.48s0,0,0,0a1.4,1.4,0,0,1-.46,0H131v.57h3.41v-.57h-.14a.8.8,0,0,1-.49-.12" transform="translate(0 -0.41)"/><path class="cls-1" d="M148.64,2.4H141.9V3H142c.3,0,.38.06.4.08s.08.13.08.47v8.86c0,.33-.05.44-.08.47s-.09.08-.4.08h-.14v.57h3v-.57h-.14c-.3,0-.38-.06-.4-.08s-.08-.13-.08-.47V8.78h4.51a4.1,4.1,0,0,0,1.36-.23,3.69,3.69,0,0,0,1.15-.65,3.36,3.36,0,0,0,.81-1,2.82,2.82,0,0,0,.31-1.32c0-2.1-1.29-3.17-3.83-3.17m1.49,4.3a2,2,0,0,1-1.42.43h-4.39V4h4a3,3,0,0,1,1.68.38,1.32,1.32,0,0,1,.52,1.18,1.59,1.59,0,0,1-.43,1.18" transform="translate(0 -0.41)"/><path class="cls-1" d="M165.08,3.92a6.3,6.3,0,0,0-2-1.22,7.86,7.86,0,0,0-5.25,0,6.31,6.31,0,0,0-2,1.22,5.28,5.28,0,0,0-1.28,1.81,5.79,5.79,0,0,0,0,4.44A5.31,5.31,0,0,0,155.83,12a5.78,5.78,0,0,0,2,1.19,8.52,8.52,0,0,0,5.24,0,5.8,5.8,0,0,0,2-1.19,5.26,5.26,0,0,0,1.28-1.81,5.82,5.82,0,0,0,0-4.44,5.23,5.23,0,0,0-1.28-1.81m-.49,5.6a3.77,3.77,0,0,1-.88,1.28,4.26,4.26,0,0,1-1.39.87,5.55,5.55,0,0,1-3.72,0,4.26,4.26,0,0,1-1.39-.87,3.75,3.75,0,0,1-.88-1.28,4.11,4.11,0,0,1-.31-1.6,4.06,4.06,0,0,1,.31-1.57,3.77,3.77,0,0,1,.88-1.28,4.09,4.09,0,0,1,1.39-.86,5.75,5.75,0,0,1,3.72,0,4,4,0,0,1,1.39.86,3.8,3.8,0,0,1,.88,1.28,4,4,0,0,1,.31,1.57,4.06,4.06,0,0,1-.31,1.6" transform="translate(0 -0.41)"/><path class="cls-1" d="M177.43,7.42a11.49,11.49,0,0,0-2.16-.31q-1.14-.06-2.12-.19a5.32,5.32,0,0,1-1.6-.42.91.91,0,0,1-.57-.9A1.79,1.79,0,0,1,171.1,5a1.17,1.17,0,0,1,.41-.53,2.56,2.56,0,0,1,.87-.39,6.09,6.09,0,0,1,1.52-.15,8.29,8.29,0,0,1,1.41.12,7.86,7.86,0,0,1,1.23.31,3.93,3.93,0,0,1,.86.4c.25.16.27.27.27.31a.68.68,0,0,1,0,.16l0,.08-.07.13.57.24,1-2.68-.56-.22-.06.1a.75.75,0,0,1-.17.25.16.16,0,0,1-.11,0,1.21,1.21,0,0,1-.41-.13c-.22-.09-.51-.2-.86-.31a10.16,10.16,0,0,0-1.29-.31A9.81,9.81,0,0,0,174,2.25a8.44,8.44,0,0,0-1.79.19,4.67,4.67,0,0,0-1.53.61,3.09,3.09,0,0,0-1.47,2.76,2.26,2.26,0,0,0,.7,1.8,4,4,0,0,0,1.69.84,11.52,11.52,0,0,0,2.15.31c.76,0,1.47.1,2.12.19a5.32,5.32,0,0,1,1.6.44,1,1,0,0,1,.57,1,1.28,1.28,0,0,1-.87,1.17,6.12,6.12,0,0,1-2.59.44,8.5,8.5,0,0,1-1.69-.16,9.94,9.94,0,0,1-1.43-.38,4.13,4.13,0,0,1-1-.46c-.3-.2-.32-.31-.32-.34a2.08,2.08,0,0,1,0-.29l0-.13-.54-.14-1.06,2.74.56.19.05-.12a.83.83,0,0,1,.12-.21.23.23,0,0,1,.19-.07,1.73,1.73,0,0,1,.56.15c.28.1.63.22,1,.35a11.46,11.46,0,0,0,1.41.32,10.69,10.69,0,0,0,1.77.14,7.87,7.87,0,0,0,4.17-.85A3,3,0,0,0,179.82,10a2.2,2.2,0,0,0-.7-1.77,4.1,4.1,0,0,0-1.69-.83" transform="translate(0 -0.41)"/><path class="cls-1" d="M192.42,1.81v.14a.56.56,0,0,1-.08.36s-.12.09-.39.09h-9.26c-.28,0-.37-.06-.39-.09a.52.52,0,0,1-.09-.36V1.81h-.57V4.64h.57V4.51a.52.52,0,0,1,.09-.36s.11-.09.39-.09h3.67v8.33c0,.33-.06.44-.08.47s-.09.08-.4.08h-.14v.57h3.13v-.57h-.14c-.3,0-.38-.06-.39-.08s-.08-.13-.08-.47V4.05h3.68c.27,0,.36.06.39.09a.55.55,0,0,1,.08.36v.14H193V1.81Z" transform="translate(0 -0.41)"/><path class="cls-1" d="M43.56,26.24a.22.22,0,0,1-.08-.18v-.14h-.57v2.64h.57v-.14a.52.52,0,0,1,.09-.36S43.69,28,44,28h2.1v1.27a2.64,2.64,0,0,1-.65.36,6.76,6.76,0,0,1-.93.28c-.34.07-.66.13-1,.17a6.72,6.72,0,0,1-.83.06,6.55,6.55,0,0,1-2.11-.31A4.37,4.37,0,0,1,39.1,29a3.42,3.42,0,0,1-.87-1.22,3.75,3.75,0,0,1-.3-1.48,4.46,4.46,0,0,1,.32-1.71,4,4,0,0,1,2.3-2.23,5,5,0,0,1,1.8-.31,7,7,0,0,1,1.83.22,6.44,6.44,0,0,1,1.34.5,3.48,3.48,0,0,1,.81.55c.23.23.24.31.24.31a1,1,0,0,1,0,.24l0,.12.53.22,1-2.42-.51-.21-.06.07-.1.12a.15.15,0,0,1-.09,0,1.74,1.74,0,0,1-.43-.21,9.5,9.5,0,0,0-1-.49,10.58,10.58,0,0,0-1.5-.48,8.09,8.09,0,0,0-1.92-.21,7.06,7.06,0,0,0-2.72.5,6.23,6.23,0,0,0-2,1.31A5.72,5.72,0,0,0,36.45,24,5.17,5.17,0,0,0,36,26a5.91,5.91,0,0,0,.49,2.46,5.24,5.24,0,0,0,1.35,1.81,5.46,5.46,0,0,0,2,1.07,9.2,9.2,0,0,0,2.55.34,13.66,13.66,0,0,0,1.47-.08,7.44,7.44,0,0,0,1.54-.34A8,8,0,0,0,47,30.6a6.2,6.2,0,0,0,1.31-1l0,0v-.41l-.11,0a.25.25,0,0,1-.23-.28V27.2C48,27,48,27,48,27a.37.37,0,0,1,.2-.09l.11,0v-.54H44c-.28,0-.37-.05-.4-.08" transform="translate(0 -0.41)"/><path class="cls-1" d="M62.44,31a1.09,1.09,0,0,1-.26-.32L59.6,26.73a3.31,3.31,0,0,0,2.05-.8,3,3,0,0,0,.82-2.26,3.33,3.33,0,0,0-.77-2.31,3.19,3.19,0,0,0-2.47-.86H51.55v.57h.14c.3,0,.38.06.4.08s.08.13.08.47V30.5c0,.33-.06.44-.08.47S52,31,51.7,31h-.14v.57h3V31h-.14c-.31,0-.38-.06-.4-.08S54,30.83,54,30.5V26.74h3.67L60,30.46c.08.15.15.26.2.35a.36.36,0,0,1,.05.18.12.12,0,0,1,0,0A1.13,1.13,0,0,1,60,31h-.14v.57h2.94V31h-.14a.39.39,0,0,1-.24-.06M54,25.09v-3h4.86a2,2,0,0,1,1.39.36,1.75,1.75,0,0,1,.34,1.2,1.61,1.61,0,0,1-.33,1.11,1.57,1.57,0,0,1-1.15.35Z" transform="translate(0 -0.41)"/><path class="cls-1" d="M76.09,22a6.3,6.3,0,0,0-2-1.22,7.87,7.87,0,0,0-5.25,0,6.3,6.3,0,0,0-2,1.22,5.17,5.17,0,0,0-1.28,1.81,5.79,5.79,0,0,0,0,4.44,5.19,5.19,0,0,0,1.28,1.81,5.71,5.71,0,0,0,2,1.19,8.49,8.49,0,0,0,5.24,0,5.74,5.74,0,0,0,2-1.19,5.27,5.27,0,0,0,1.28-1.81,5.79,5.79,0,0,0,0-4.44A5.31,5.31,0,0,0,76.09,22m-.49,5.6a3.87,3.87,0,0,1-.88,1.28,4.23,4.23,0,0,1-1.39.87,5.53,5.53,0,0,1-3.72,0,4.18,4.18,0,0,1-1.39-.87,3.75,3.75,0,0,1-.88-1.28A4.07,4.07,0,0,1,67,26a4,4,0,0,1,.31-1.57,3.76,3.76,0,0,1,.88-1.28,4,4,0,0,1,1.39-.86,5.72,5.72,0,0,1,3.72,0,4.06,4.06,0,0,1,1.39.86,3.82,3.82,0,0,1,.88,1.28A4,4,0,0,1,75.9,26a4.12,4.12,0,0,1-.3,1.6" transform="translate(0 -0.41)"/><path class="cls-1" d="M89.94,21.08h.14c.23,0,.29.05.31.08s.07.14.07.47v6.08a1.89,1.89,0,0,1-1,1.84,7.2,7.2,0,0,1-5.53,0,1.89,1.89,0,0,1-1-1.84V21.63a.91.91,0,0,1,.07-.47s.08-.08.31-.08h.14v-.57H80.63v.57h.14c.23,0,.29.05.31.08a.89.89,0,0,1,.07.47V28a3,3,0,0,0,.52,1.8A3.67,3.67,0,0,0,83,31a5.81,5.81,0,0,0,1.79.57,12.43,12.43,0,0,0,3.83,0A5.84,5.84,0,0,0,90.41,31a3.68,3.68,0,0,0,1.33-1.14,3,3,0,0,0,.52-1.8v-6.4a.92.92,0,0,1,.07-.47s.08-.08.31-.08h.14v-.57H89.94Z" transform="translate(0 -0.41)"/><path class="cls-1" d="M101.85,20.51H95.11v.57h.14c.31,0,.38.06.4.08a.84.84,0,0,1,.08.47V30.5c0,.33,0,.44-.08.47s-.09.08-.4.08h-.14v.57h3V31H98c-.3,0-.38-.06-.4-.08s-.08-.13-.08-.47v-3.6H102a4.15,4.15,0,0,0,1.36-.23,3.72,3.72,0,0,0,1.15-.66,3.28,3.28,0,0,0,.81-1,2.82,2.82,0,0,0,.31-1.32c0-2.1-1.29-3.17-3.83-3.17m1.49,4.3a2,2,0,0,1-1.42.43H97.53V22.07h4a3,3,0,0,1,1.68.38,1.32,1.32,0,0,1,.52,1.18,1.55,1.55,0,0,1-.44,1.18" transform="translate(0 -0.41)"/></svg>