<svg id="Layer_1" data-name="Layer 1" xmlns="http://www.w3.org/2000/svg" width="60" height="120" viewBox="0 0 60 120"><defs><style>.cls-1,.cls-3{fill:#fff;}.cls-2{fill:#213264;}.cls-3{opacity:0.5;isolation:isolate;}</style></defs><title>arrow</title><rect class="cls-1" y="60" width="30" height="60"/><path class="cls-2" d="M1.32,89.17,12,76.54A1.14,1.14,0,0,1,13.73,78h0L3.53,90.07l10.2,12.07a1.14,1.14,0,0,1-.13,1.61h0a1.18,1.18,0,0,1-.74.27,1.15,1.15,0,0,1-.88-.41L1.32,91a1.14,1.14,0,0,1-.25-.91A1.13,1.13,0,0,1,1.32,89.17Z"/><rect class="cls-1" x="30" y="60" width="30" height="60"/><path class="cls-2" d="M58.93,90.07a1.14,1.14,0,0,1-.25.91L48,103.61a1.15,1.15,0,0,1-.88.41,1.18,1.18,0,0,1-.74-.27h0a1.14,1.14,0,0,1-.13-1.61l10.2-12.07L46.27,78h0A1.14,1.14,0,1,1,48,76.54L58.68,89.17A1.13,1.13,0,0,1,58.93,90.07Z"/><rect class="cls-3" x="30" width="30" height="60"/><path class="cls-2" d="M58.68,29.16,48,16.53a1.15,1.15,0,0,0-1.87,1.33.57.57,0,0,0,.12.15L56.5,30.07,46.32,42.13a1.13,1.13,0,0,0,.12,1.59l0,0a1.15,1.15,0,0,0,1.61-.13L58.73,31a1.8,1.8,0,0,0,0-1.82Z"/><rect class="cls-3" width="30" height="60"/><path class="cls-2" d="M1.27,29.16a1.8,1.8,0,0,0,0,1.82L11.93,43.61a1.15,1.15,0,0,0,1.61.13l0,0a1.13,1.13,0,0,0,.12-1.59L3.5,30.07,13.73,18a.57.57,0,0,0,.12-.15A1.15,1.15,0,0,0,12,16.53L1.32,29.16Z"/></svg>