<svg id="detail" xmlns="http://www.w3.org/2000/svg" width="14" height="14.001" viewBox="0 0 14 14.001">
  <path id="Path_11430" data-name="Path 11430" d="M253.992,19.742A3.992,3.992,0,0,0,250,15.75h-5.53a3.992,3.992,0,0,0-3.991,3.992v5.53a3.991,3.991,0,0,0,3.991,3.991H250a3.991,3.991,0,0,0,3.991-3.991Z" transform="translate(-240.236 -15.506)" fill="#fff" fill-rule="evenodd"/>
  <path id="Path_11431" data-name="Path 11431" d="M248.252,27.751h-5.544a4.233,4.233,0,0,1-4.228-4.228V17.979a4.233,4.233,0,0,1,4.228-4.229h5.544a4.233,4.233,0,0,1,4.228,4.229v5.544a4.233,4.233,0,0,1-4.228,4.228Zm-5.544-13.54a3.778,3.778,0,0,0-3.773,3.774v5.538a3.778,3.778,0,0,0,3.773,3.773h5.544a3.778,3.778,0,0,0,3.773-3.773V17.979a3.778,3.778,0,0,0-3.773-3.774Z" transform="translate(-238.48 -13.75)" fill="#2b63d1"/>
  <path id="Path_11432" data-name="Path 11432" d="M271.948,42.323v2.989H274.8v1.03h-2.855v3.013h-1.093V46.342H268V45.309h2.855V42.32Z" transform="translate(-264.401 -38.837)" fill="#2b63d1"/>
</svg>
